<svg xmlns="http://www.w3.org/2000/svg" version="1.1" xmlns:xlink="http://www.w3.org/1999/xlink" xmlns:svgjs="http://svgjs.com/svgjs" width="512" height="512" x="0" y="0" viewBox="0 0 497 497" style="enable-background:new 0 0 512 512" xml:space="preserve" class=""><g><g><path d="m248.486 6.243v19.897l-74.235 5.027-78.815-5.027v-19.897c0-3.448 2.795-6.243 6.243-6.243h140.564c3.448 0 6.243 2.795 6.243 6.243z" fill="#7ca1b1" data-original="#7ca1b1"></path><path d="m248.49 6.24v19.9l-32 2v-21.9c0-3.45-2.8-6.24-6.25-6.24h32c3.45 0 6.25 2.79 6.25 6.24z" fill="#678d98" data-original="#678d98"></path><path d="m334.886 56.41v402.42c0 16.72-13.55 30.27-30.27 30.27h-265.31c-16.72 0-30.28-13.55-30.28-30.27v-402.42c0-16.72 13.56-30.27 30.28-30.27h15.975l116.684 7.694 113.985-7.694h18.666c16.72 0 30.27 13.55 30.27 30.27z" fill="#5986cb" data-original="#5986cb"></path><path d="m334.89 56.41v402.42c0 16.72-13.55 30.27-30.27 30.27h-18.67c16.72 0 30.27-13.55 30.27-30.27v-402.42c0-31.327-26.8-30.27-26.8-30.27h15.2c16.72 0 30.27 13.55 30.27 30.27z" fill="#4278c3" data-original="#4278c3"></path><path d="m304.62 41.34v381.77c0 8.4-6.81 15.2-15.2 15.2h-234.91c-8.4 0-15.2-6.8-15.2-15.2v-381.77c0-8.39 6.8-15.2 15.2-15.2h234.91c8.39 0 15.2 6.81 15.2 15.2z" fill="#c8effe" data-original="#c8effe" class=""></path><path d="m304.62 41.34v381.77c0 8.4-6.81 15.2-15.2 15.2h-26.82c8.4 0 15.2-6.8 15.2-15.2v-381.77c0-8.39-6.8-15.2-15.2-15.2h26.82c8.39 0 15.2 6.81 15.2 15.2z" fill="#99e6fc" data-original="#99e6fc"></path><path d="m264.127 131.158h-179.752c-3.296 0-5.968-2.672-5.968-5.968v-18.064c0-3.296 2.672-5.968 5.968-5.968h179.752c3.296 0 5.968 2.672 5.968 5.968v18.064c0 3.296-2.672 5.968-5.968 5.968z" fill="#7ca1b1" data-original="#7ca1b1"></path><g><path d="m220.77 26.14v14.05c0 9.51-7.73 17.25-17.24 17.25h-63.14c-9.51 0-17.24-7.74-17.24-17.25v-14.05h-15v14.05c0 17.78 14.46 32.25 32.24 32.25h63.14c17.78 0 32.24-14.47 32.24-32.25v-14.05z" fill="#eaf6ff" data-original="#eaf6ff" class=""></path></g><g><path d="m127.729 188.148h-41.823c-4.142 0-7.5-3.358-7.5-7.5s3.358-7.5 7.5-7.5h41.823c4.142 0 7.5 3.358 7.5 7.5s-3.358 7.5-7.5 7.5z" fill="#7ca1b1" data-original="#7ca1b1"></path></g><g><path d="m219.377 237.639h-133.471c-4.142 0-7.5-3.358-7.5-7.5s3.358-7.5 7.5-7.5h133.47c4.142 0 7.5 3.358 7.5 7.5s-3.357 7.5-7.499 7.5z" fill="#7ca1b1" data-original="#7ca1b1"></path></g><g><path d="m206.116 287.129h-120.21c-4.142 0-7.5-3.358-7.5-7.5s3.358-7.5 7.5-7.5h120.209c4.142 0 7.5 3.358 7.5 7.5s-3.357 7.5-7.499 7.5z" fill="#7ca1b1" data-original="#7ca1b1"></path></g><g><path d="m192.855 336.62h-106.949c-4.142 0-7.5-3.358-7.5-7.5s3.358-7.5 7.5-7.5h106.949c4.142 0 7.5 3.358 7.5 7.5s-3.358 7.5-7.5 7.5z" fill="#7ca1b1" data-original="#7ca1b1"></path></g><g><path d="m127.729 386.111h-41.823c-4.142 0-7.5-3.358-7.5-7.5s3.358-7.5 7.5-7.5h41.823c4.142 0 7.5 3.358 7.5 7.5s-3.358 7.5-7.5 7.5z" fill="#7ca1b1" data-original="#7ca1b1"></path></g><path d="m480.222 191.637-196.94-52.77c-5.578-1.495-11.311 1.816-12.806 7.393l-76.313 284.806c-1.495 5.578 1.816 11.311 7.393 12.806l196.94 52.77c5.578 1.495 11.311-1.816 12.806-7.393l76.313-284.806c1.495-5.578-1.815-11.311-7.393-12.806z" fill="#99e6fc" data-original="#99e6fc"></path><path d="m462.942 161.714-76.313 284.803c-1.493 5.573-7.228 8.892-12.801 7.399l-196.943-52.771c-5.573-1.493-8.89-7.237-7.396-12.811l76.313-284.803c1.496-5.583 7.237-8.89 12.811-7.396l196.943 52.771c5.572 1.493 8.882 7.225 7.386 12.808z" fill="#eaf6ff" data-original="#eaf6ff" class=""></path><path d="m462.94 161.71-76.31 284.81c-1.49 5.57-7.23 8.89-12.8 7.4l-31.56-8.46c5.57 1.49 11.32-1.82 12.81-7.4l76.31-284.8c1.49-5.55-1.78-11.26-7.3-12.78l31.46 8.43c5.58 1.49 8.89 7.22 7.39 12.8z" fill="#c8effe" data-original="#c8effe" class=""></path><circle cx="303.335" cy="323.106" fill="#46cc8d" r="73.713" data-original="#46cc8d" class=""></circle><path d="m397.838 233.335-131.46-35.225c-3.022-.81-4.815-3.916-4.005-6.937l12.375-46.186c.81-3.022 3.916-4.815 6.938-4.005l131.46 35.225c3.022.81 4.815 3.916 4.005 6.937l-12.375 46.186c-.81 3.021-3.916 4.814-6.938 4.005z" fill="#80b4fb" data-original="#80b4fb" class=""></path><g><path d="m299.276 345.783c-2.592 0-5.113-1.345-6.502-3.751l-24.243-41.99c-2.071-3.587-.842-8.174 2.745-10.245 3.587-2.072 8.174-.842 10.245 2.745l20.493 35.495 66.234-38.24c3.587-2.072 8.174-.842 10.245 2.745s.842 8.174-2.745 10.245l-72.729 41.99c-1.181.682-2.471 1.006-3.743 1.006z" fill="#b0e7c9" data-original="#b0e7c9"></path></g></g></g></svg>