<svg xmlns="http://www.w3.org/2000/svg" version="1.1" xmlns:xlink="http://www.w3.org/1999/xlink" xmlns:svgjs="http://svgjs.com/svgjs" width="512" height="512" x="0" y="0" viewBox="0 0 512 512" style="enable-background:new 0 0 512 512" xml:space="preserve" class=""><g><g xmlns="http://www.w3.org/2000/svg" id="XMLID_1_"><g id="XMLID_4565_"><path id="XMLID_1503_" d="m507 95c-56.8-13.3-115-20-173.3-20h-57.9-19.8-19.8-57.9c-58.3 0-116.5 6.7-173.3 20l48.1 65.4c-31 37.2-48.1 84.2-48.1 132.8 0 86.5 53.7 163.9 134.7 194.3 34.6 12.9 71.2 19.6 108.1 19.6h16.3c36.9 0 73.6-6.6 108.1-19.6 81-30.3 134.7-107.7 134.7-194.3 0-48.6-17.1-95.6-48.1-132.8z" fill="#ffc970" data-original="#ffc970" class=""></path><path id="XMLID_2928_" d="m372.3 445.4c-34.6 12.9-71.2 19.6-108.1 19.6h-16.3c-36.9 0-73.6-6.6-108.1-19.6-74.5-27.8-125.8-95.4-133.7-173.2-.7 7-1.1 13.9-1.1 21 0 86.5 53.7 163.9 134.7 194.3 34.6 12.9 71.2 19.6 108.1 19.6h16.3c36.9 0 73.6-6.6 108.1-19.6 81-30.3 134.7-107.7 134.7-194.3 0-7-.4-14-1.1-20.9-7.8 77.7-59.1 145.3-133.5 173.1z" fill="#ffb233" data-original="#ffb233"></path><path id="XMLID_2927_" d="m256 240c-12.4 0-23.9 6.5-30.2 17.2l-8.4 14.1c-6.5 11-18.4 17.7-31.1 17.7-20 0-36.2 16.2-36.2 36.2v165.8c31.5 10.5 64.6 15.9 97.8 15.9h16.3c33.3 0 66.3-5.4 97.8-15.9v-165.8c0-20-16.2-36.2-36.2-36.2-12.8 0-24.6-6.7-31.1-17.7l-8.4-14.1c-6.4-10.7-17.9-17.2-30.3-17.2z" fill="#ebeae0" data-original="#ebeae0"></path><g fill="#e36414"><path id="XMLID_2926_" d="m9.2 334.5c2.1 10.6 5.1 20.9 8.8 30.9 25.8-10.5 43.6-24.2 40.8-31.9-2.8-7.6-24.1-6.9-49.6 1z" fill="#e36414" data-original="#e36414"></path><path id="XMLID_2925_" d="m58.7 280.6c3.1-8.4-18.5-24-48.2-34.8-2.5 10.7-4.2 21.6-5 32.7 27.2 8.8 50.4 9.9 53.2 2.1z" fill="#e36414" data-original="#e36414"></path><path id="XMLID_2924_" d="m501.5 245.7c-29.7 10.8-51.3 26.4-48.2 34.8 2.9 7.8 26.1 6.7 53.2-2.2-.8-11-2.5-21.9-5-32.6z" fill="#e36414" data-original="#e36414"></path><path id="XMLID_2923_" d="m453.3 333.4c-2.8 7.7 15 21.4 40.8 31.9 3.7-10 6.7-20.3 8.8-30.9-25.6-7.8-46.9-8.5-49.6-1z" fill="#e36414" data-original="#e36414"></path></g><path id="XMLID_2922_" d="m264.2 465h-16.3c-33.3 0-66.3-5.4-97.8-15.9v42c31.5 10.5 64.6 15.9 97.8 15.9h16.3c33.3 0 66.3-5.4 97.8-15.9v-42c-31.5 10.5-64.6 15.9-97.8 15.9z" fill="#d7d5c1" data-original="#d7d5c1"></path><path id="XMLID_1502_" d="m170.8 75.1c.6 1.8 1.2 3.7 1.9 5.5 10.8 29.7 26.4 51.2 34.8 48.2 7.9-2.9 6.7-26.4-2.4-53.7h-26.9c-2.4-.1-4.9-.1-7.4 0z" fill="#e36414" data-original="#e36414"></path><path id="XMLID_1501_" d="m256 145c13.8 0 25-31.3 25-70h-5.2-19.8-19.8-5.2c0 38.7 11.2 70 25 70z" fill="#e36414" data-original="#e36414"></path><path id="XMLID_1500_" d="m333.7 75h-26.9c-9.1 27.4-10.3 50.9-2.4 53.7 8.4 3.1 24-18.5 34.8-48.2.7-1.8 1.3-3.7 1.9-5.5-2.4 0-4.9 0-7.4 0z" fill="#e36414" data-original="#e36414"></path><path id="XMLID_1499_" d="m56.6 156.3c10.7-12.2 22.6-23.2 35.4-32.8l-87-28.5 48.1 65.4c1.1-1.4 2.3-2.8 3.5-4.1z" fill="#ebeae0" data-original="#ebeae0"></path><path id="XMLID_1494_" d="m420 123.4c12.8 9.7 24.6 20.6 35.4 32.8 1.2 1.4 2.4 2.7 3.5 4.1l48.1-65.3z" fill="#ebeae0" data-original="#ebeae0"></path><g id="XMLID_1679_"><path id="XMLID_2939_" d="m251 260h10v60h-10z" fill="#b24e10" data-original="#b24e10"></path></g><g id="XMLID_1678_"><path id="XMLID_2938_" d="m103 303.4h10v41.2h-10z" fill="#b24e10" transform="matrix(.243 .97 -.97 .243 396.124 140.629)" data-original="#b24e10"></path></g><g id="XMLID_1677_"><path id="XMLID_2937_" d="m87.4 289h41.2v10h-41.2z" fill="#b24e10" transform="matrix(.97 .243 -.243 .97 74.53 -17.416)" data-original="#b24e10"></path></g><g id="XMLID_1676_"><path id="XMLID_2936_" d="m399 273.4h10v41.2h-10z" fill="#b24e10" transform="matrix(.243 .97 -.97 .243 591.216 -169.252)" data-original="#b24e10"></path></g><g id="XMLID_1675_"><path id="XMLID_2935_" d="m383.4 319h41.2v10h-41.2z" fill="#b24e10" transform="matrix(.97 .243 -.243 .97 90.644 -88.311)" data-original="#b24e10"></path></g><path id="XMLID_1674_" d="m261.9 240h-11.7c-7.8 0-14.1 6.3-14.1 14.1 0 3.8 1.5 7.3 4.1 10l15.8 15.9 15.9-15.9c2.7-2.7 4.1-6.2 4.1-10 0-7.8-6.3-14.1-14.1-14.1z" fill="#e36414" data-original="#e36414"></path><g id="XMLID_1673_"><path id="XMLID_2934_" d="m187 167.6h10v44.7h-10z" fill="#b24e10" transform="matrix(.447 .894 -.894 .447 276.087 -66.697)" data-original="#b24e10"></path></g><g id="XMLID_1672_"><path id="XMLID_2933_" d="m297.6 185h44.7v10h-44.7z" fill="#b24e10" transform="matrix(.894 .447 -.447 .894 118.754 -123.05)" data-original="#b24e10"></path></g><g id="XMLID_1671_"><path id="XMLID_2932_" d="m321 374-65-47.8-65 47.8-6-8 68-50c1.8-1.3 4.2-1.3 5.9 0l68 50z" fill="#b24e10" data-original="#b24e10"></path></g><g id="XMLID_1670_"><path id="XMLID_2931_" d="m320 265c-13.8 0-25-11.2-25-25v-20h10v20c0 8.3 6.7 15 15 15s15-6.7 15-15v-20h10v20c0 13.8-11.2 25-25 25z" fill="#b24e10" data-original="#b24e10"></path></g><g id="XMLID_1669_"><path id="XMLID_2930_" d="m192 265c-13.8 0-25-11.2-25-25v-20h10v20c0 8.3 6.7 15 15 15s15-6.7 15-15v-20h10v20c0 13.8-11.2 25-25 25z" fill="#b24e10" data-original="#b24e10"></path></g></g></g></g></svg>