f<svg xmlns="http://www.w3.org/2000/svg" version="1.1" xmlns:xlink="http://www.w3.org/1999/xlink" xmlns:svgjs="http://svgjs.com/svgjs" width="512" height="512" x="0" y="0" viewBox="0 0 512 512" style="enable-background:new 0 0 512 512" xml:space="preserve" class=""><g><g><path d="m413.77 509c-1.42 1.9-3.65 3-6 3-.17 0-.34-.01-.52-.02-2.04-.14-33.19-2.39-74.28-11.33l-76.97-42.841-76.97 42.84c-41.09 8.94-72.24 11.19-74.28 11.33-2.54.17-4.99-.95-6.52-2.98-1.52-2.03-1.91-4.7-1.04-7.09 18.44-50.121 27.76-100.632 32.38-134.903 3.46-25.74 4.27-42.311 4.29-42.691.18-4.01 3.48-7.16 7.49-7.16l229.3-.04c4.01 0 7.31 3.16 7.49 7.17.02.38.83 16.97 4.29 42.721 4.62 34.271 13.95 84.792 32.38 134.903.87 2.391.48 5.061-1.04 7.091z" fill="#78c2ef" data-original="#78c2ef"></path><path d="m382.43 367.007c-4.08 6.91-9.66 13.48-17.83 18.21-16.07 9.3-33.38 6.24-46.03 4-3.41-.6-8.89-1.56-11.41-1.53-2.06 1.2-6.06 4.58-8.54 6.68-9.96 8.41-23.59 19.94-42.62 19.94s-32.66-11.53-42.62-19.94c-2.48-2.1-6.48-5.48-8.54-6.68-2.52-.06-8.01.93-11.41 1.53-12.65 2.24-29.96 5.3-46.03-4-8.17-4.73-13.75-11.3-17.83-18.21 3.46-25.74 4.27-42.311 4.29-42.691.18-4.01 3.48-7.16 7.49-7.16l229.3-.04c4.01 0 7.31 3.16 7.49 7.17.02.38.83 16.971 4.29 42.721z" fill="#74a1e2" data-original="#74a1e2"></path><path d="m332.97 500.65c-23.59-5.12-50.45-12.45-76.97-22.84-26.52 10.39-53.38 17.72-76.97 22.84 10.12-43.421 16.17-84.392 19.54-112.302 2.7-22.26 3.69-36.231 3.69-36.541 0-4.14 3.36-7.5 7.5-7.5h92.48c4.14 0 7.5 3.36 7.5 7.5 0 .31.99 14.28 3.69 36.541 3.37 27.91 9.42 68.881 19.54 112.302z" fill="#e5eaf9" data-original="#e5eaf9"></path><path d="m313.43 388.348c-2.43-.37-4.83-.68-6.27-.66-2.06 1.2-6.06 4.58-8.54 6.68-9.96 8.41-23.59 19.94-42.62 19.94s-32.66-11.53-42.62-19.94c-2.48-2.1-6.48-5.48-8.54-6.68-1.44-.03-3.84.27-6.27.66 2.7-22.26 3.69-36.231 3.69-36.541 0-4.14 3.36-7.5 7.5-7.5h92.48c4.14 0 7.5 3.36 7.5 7.5 0 .31.99 14.28 3.69 36.541z" fill="#cbd6ef" data-original="#cbd6ef"></path><path d="m427.12 243.015c-1.42 5.31-.08 12.88 1.21 20.21 1.98 11.2 4.03 22.77-1.61 32.531-5.73 9.9-17.38 14.1-27.66 17.82-6.91 2.49-14.06 5.07-17.83 8.84-3.76 3.76-6.34 10.91-8.84 17.83-3.7 10.28-7.91 21.93-17.81 27.661-7.42 4.3-15.89 4.14-24.45 2.95-2.69-.38-5.39-.85-8.07-1.33-7.33-1.3-14.9-2.64-20.21-1.22-4.94 1.32-10.63 6.13-16.14 10.78-8.44 7.13-18 15.22-29.71 15.22s-21.27-8.09-29.71-15.22c-5.51-4.65-11.2-9.46-16.14-10.78-5.31-1.42-12.88-.08-20.21 1.22-11.19 1.98-22.77 4.03-32.52-1.62-9.9-5.73-14.11-17.38-17.82-27.661-2.49-6.92-5.07-14.07-8.83-17.83-3.77-3.77-10.92-6.35-17.83-8.85-10.28-3.71-21.93-7.91-27.66-17.81-5.64-9.76-3.59-21.33-1.61-32.531 1.29-7.33 2.63-14.9 1.21-20.21-1.32-4.94-6.13-10.64-10.78-16.15-7.13-8.44-15.21-18-15.21-29.711 0-11.71 8.08-21.28 15.21-29.721 4.65-5.51 9.46-11.2 10.78-16.15 1.42-5.3.08-12.88-1.21-20.21-1.98-11.19-4.03-22.77 1.61-32.521 5.73-9.9 17.38-14.11 27.66-17.82 6.91-2.5 14.06-5.08 17.83-8.84 3.76-3.77 6.34-10.92 8.84-17.83 3.7-10.29 7.91-21.94 17.81-27.671 9.75-5.64 21.33-3.59 32.52-1.61 7.33 1.29 14.9 2.63 20.21 1.22 4.94-1.32 10.63-6.14 16.14-10.79 8.44-7.131 18-15.211 29.71-15.211s21.27 8.08 29.71 15.21c5.51 4.65 11.2 9.47 16.14 10.79 5.31 1.42 12.88.07 20.21-1.22 2.8-.5 5.62-1 8.44-1.38 8.43-1.14 16.77-1.24 24.08 2.99 9.9 5.73 14.11 17.39 17.81 27.671 2.5 6.91 5.08 14.06 8.85 17.83 3.76 3.76 10.91 6.34 17.82 8.84 10.28 3.71 21.93 7.92 27.66 17.82 5.64 9.75 3.59 21.33 1.61 32.521-1.29 7.33-2.63 14.91-1.21 20.21 1.32 4.95 6.13 10.64 10.78 16.15 7.13 8.44 15.21 18.01 15.21 29.721 0 11.71-8.08 21.27-15.21 29.711-4.65 5.511-9.46 11.211-10.78 16.151z" fill="#ffe0a9" data-original="#ffe0a9"></path><path d="m427.12 243.015c-1.42 5.31-.08 12.88 1.21 20.21 1.98 11.2 4.03 22.77-1.61 32.531-5.73 9.9-17.38 14.1-27.66 17.82-6.91 2.49-14.06 5.07-17.83 8.84-3.76 3.76-6.34 10.91-8.84 17.83-3.7 10.28-7.91 21.93-17.81 27.661-7.42 4.3-15.89 4.14-24.45 2.95 7.8-6.4 11.55-16.83 14.92-26.15 2.57-7.14 5.24-14.52 9.12-18.41 3.89-3.89 11.27-6.55 18.41-9.13 10.61-3.83 22.64-8.17 28.56-18.39 5.82-10.07 3.71-22.03 1.66-33.591-1.34-7.56-2.72-15.38-1.26-20.86 1.37-5.1 6.33-10.98 11.13-16.67 7.37-8.71 15.71-18.59 15.71-30.681 0-12.09-8.34-21.97-15.71-30.681-4.8-5.69-9.76-11.56-11.13-16.67-1.46-5.48-.08-13.3 1.26-20.86 2.05-11.56 4.16-23.52-1.66-33.581-5.92-10.23-17.95-14.57-28.56-18.4-7.14-2.58-14.52-5.24-18.4-9.13-3.89-3.89-6.56-11.27-9.13-18.41-3.31-9.17-7-19.41-14.55-25.841 8.43-1.14 16.77-1.24 24.08 2.99 9.9 5.73 14.11 17.39 17.81 27.671 2.5 6.91 5.08 14.06 8.85 17.83 3.76 3.76 10.91 6.34 17.82 8.84 10.28 3.71 21.93 7.92 27.66 17.82 5.64 9.75 3.59 21.33 1.61 32.521-1.29 7.33-2.63 14.91-1.21 20.21 1.32 4.95 6.13 10.64 10.78 16.15 7.13 8.44 15.21 18.01 15.21 29.721 0 11.71-8.08 21.27-15.21 29.711-4.65 5.509-9.46 11.209-10.78 16.149z" fill="#ffcb78" data-original="#ffcb78"></path><g><path d="m394.66 197.146c0 76.731-62.08 138.943-138.66 138.943-3.7 0-7.37-.15-11-.44-71.44-5.61-127.66-65.481-127.66-138.503 0-73.021 56.22-132.883 127.66-138.493 3.63-.29 7.3-.44 11-.44 76.58 0 138.66 62.201 138.66 138.933z" fill="#ffa757" data-original="#ffa757" class=""></path><path d="m394.66 197.146c0 76.731-62.08 138.943-138.66 138.943-3.7 0-7.37-.15-11-.44 71.44-5.61 127.66-65.481 127.66-138.503 0-73.021-56.22-132.883-127.66-138.493 3.63-.29 7.3-.44 11-.44 76.58 0 138.66 62.201 138.66 138.933z" fill="#ff895a" data-original="#ff895a"></path><path d="m302.22 250.916c-.598-.081-11.387-1.522-25.842-2.247 2.69-66.1-.704-128.371-.742-129.041-.372-6.667-5.088-12.289-11.579-13.801s-13.199 1.448-16.468 7.266c-14.381 25.595-36.956 35.582-37.558 35.843-7.616 3.172-11.251 11.917-8.122 19.575 3.14 7.683 11.902 11.36 19.565 8.213.787-.323 12.244-5.135 25.565-16.5.514 23.683.687 55.609-.683 88.377-15.161.698-26.639 2.232-27.257 2.315-8.208 1.111-13.96 8.677-12.855 16.902s8.653 13.989 16.865 12.89c.177-.024 17.931-2.383 37.5-2.387h.064.066c19.557.006 37.294 2.363 37.465 2.386.682.092 1.357.137 2.027.137 7.392 0 13.829-5.477 14.846-13.021 1.109-8.226-4.648-15.796-12.857-16.907z" fill="#ffe0a9" data-original="#ffe0a9"></path><g fill="#ffcb78"><circle cx="157.07" cy="197.248" r="7.5" fill="#ffcb78" data-original="#ffcb78"></circle><circle cx="164.07" cy="156.751" r="7.5" fill="#ffcb78" data-original="#ffcb78"></circle><circle cx="164.07" cy="237.752" r="7.5" fill="#ffcb78" data-original="#ffcb78"></circle><circle cx="354.93" cy="197.248" r="7.5" fill="#ffcb78" data-original="#ffcb78"></circle><circle cx="347.93" cy="156.751" r="7.5" fill="#ffcb78" data-original="#ffcb78"></circle><circle cx="347.93" cy="237.752" r="7.5" fill="#ffcb78" data-original="#ffcb78"></circle></g></g></g></g></svg>