<svg xmlns="http://www.w3.org/2000/svg" version="1.1" xmlns:xlink="http://www.w3.org/1999/xlink" xmlns:svgjs="http://svgjs.com/svgjs" width="512" height="512" x="0" y="0" viewBox="0 0 32 32" style="enable-background:new 0 0 512 512" xml:space="preserve" class=""><g><g xmlns="http://www.w3.org/2000/svg" id="Layer_2" data-name="Layer 2"><path d="m27 20h-5v-3a3 3 0 0 0 -3-3h-6a3 3 0 0 0 -3 3v4h-5a3 3 0 0 0 -3 3v3a3 3 0 0 0 3 3h22a3 3 0 0 0 3-3v-4a3 3 0 0 0 -3-3zm-23 7v-3a1 1 0 0 1 1-1h5v5h-5a1 1 0 0 1 -1-1zm8-10a1 1 0 0 1 1-1h6a1 1 0 0 1 1 1v11h-8zm16 10a1 1 0 0 1 -1 1h-5v-6h5a1 1 0 0 1 1 1z" fill="#171938" data-original="#171938"></path><path d="m20.711 5.817a.749.749 0 0 0 -.6-.5l-2.368-.361-1.064-2.274a.78.78 0 0 0 -1.358 0l-1.066 2.271-2.368.361a.75.75 0 0 0 -.424 1.265l1.737 1.779-.411 2.521a.751.751 0 0 0 1.1.777l2.111-1.165 2.108 1.165a.751.751 0 0 0 1.1-.777l-.408-2.521 1.736-1.779a.749.749 0 0 0 .175-.762z" fill="#4c46c8" data-original="#4c46c8" class=""></path></g></g></svg>