<svg xmlns="http://www.w3.org/2000/svg" version="1.1" xmlns:xlink="http://www.w3.org/1999/xlink" xmlns:svgjs="http://svgjs.com/svgjs" width="512" height="512" x="0" y="0" viewBox="0 0 24 24" style="enable-background:new 0 0 512 512" xml:space="preserve" class=""><g><circle cx="12" cy="12" fill="#449a95" r="12" data-original="#fd4084" class=""></circle><path clip-rule="evenodd" d="m17.6 7.1c-.4 0-.7.3-.7.7v2.8c0 1.2-.9 2.1-2.1 2.1h-6.7l1.6-1.6c.3-.3.3-.7 0-1s-.7-.3-1 0l-2.7 2.7c-.2.1-.3.3-.3.6s.1.5.3.6l2.7 2.7c.3.3.7.3 1 0s.3-.7 0-1l-1.6-1.6h6.7c2 0 3.5-1.5 3.5-3.5v-2.8c0-.4-.3-.7-.7-.7z" fill="#ffffff" fill-rule="evenodd" data-original="#ffffff" class=""></path></g></svg>