<svg xmlns="http://www.w3.org/2000/svg" version="1.1" xmlns:xlink="http://www.w3.org/1999/xlink" xmlns:svgjs="http://svgjs.com/svgjs" width="512" height="512" x="0" y="0" viewBox="0 0 24 24" style="enable-background:new 0 0 512 512" xml:space="preserve" class=""><g><circle cx="12" cy="12" fill="#fd4084" r="12" data-original="#fd4084" class=""></circle><path d="m10.6 6.6c-1.5 0-2.7 1.2-2.7 2.7s1.2 2.7 2.7 2.7 2.7-1.2 2.7-2.7-1.2-2.7-2.7-2.7zm-4 2.7c0-2.2 1.8-4.1 4.1-4.1s4.1 1.8 4.1 4.1-1.8 4.1-4.1 4.1-4.1-1.9-4.1-4.1zm8.7-2.9c.3-.3.7-.3 1 0 1.6 1.6 1.6 4.1 0 5.8-.3.3-.7.3-1 0s-.3-.7 0-1c1.1-1.1 1.1-2.8 0-3.9-.3-.2-.3-.7 0-.9zm.4 8.9c.1-.3.5-.6.8-.5.9.2 1.5.8 1.8 1.4s.4 1.4.4 1.9c0 .4-.3.7-.7.7s-.7-.3-.7-.7c0-.5-.1-1-.3-1.3s-.5-.6-.9-.7c-.2-.2-.4-.5-.4-.8zm-7.4.8c-.9 0-1.7.8-1.7 2 0 .4-.3.7-.7.7s-.7-.3-.7-.7c0-1.8 1.3-3.4 3.1-3.4h4.7c1.8 0 3.1 1.6 3.1 3.4 0 .4-.3.7-.7.7s-.7-.3-.7-.7c0-1.2-.8-2-1.7-2z" fill="#ffffff" data-original="#ffffff" class=""></path></g></svg>