<svg xmlns="http://www.w3.org/2000/svg" version="1.1" xmlns:xlink="http://www.w3.org/1999/xlink" xmlns:svgjs="http://svgjs.com/svgjs" width="512" height="512" x="0" y="0" viewBox="0 0 512 512" style="enable-background:new 0 0 512 512" xml:space="preserve" class=""><g><g xmlns="http://www.w3.org/2000/svg" id="XMLID_1_"><g id="XMLID_4861_"><path id="XMLID_2056_" d="m299.7 163h158c30.5-47.2 31.1-107.8 1.5-155.6l-1.5-2.4h-1.5c-63.4 0-119.5 41.1-138.7 101.6z" fill="#ffc970" data-original="#ffc970" class=""></path><path id="XMLID_2055_" d="m340 62.9c-9.7 12.9-17.4 27.6-22.5 43.6l-17.8 56.5h158c4.5-7 8.4-14.4 11.6-21.9-34.7-38.7-79.8-65.6-129.3-78.2z" fill="#ffb233" data-original="#ffb233" class=""></path><path id="XMLID_2054_" d="m299.7 163h158c30.5-47.2 31.1-107.8 1.5-155.6l-1.5-2.4z" fill="#d7d5c1" data-original="#d7d5c1"></path><path id="XMLID_2053_" d="m213.7 163h-158c-30.6-47.2-31.2-107.8-1.5-155.6l1.5-2.4h1.5c63.4 0 119.5 41.1 138.7 101.6z" fill="#ffc970" data-original="#ffc970" class=""></path><path id="XMLID_2052_" d="m195.8 106.6c-5.1-16-12.8-30.7-22.5-43.6-49.5 12.5-94.6 39.4-129.3 78.1 3.2 7.5 7.1 14.9 11.6 21.9h158z" fill="#ffb233" data-original="#ffb233" class=""></path><path id="XMLID_2051_" d="m213.7 163h-158c-30.6-47.2-31.2-107.8-1.5-155.6l1.5-2.4z" fill="#d7d5c1" data-original="#d7d5c1"></path><path id="XMLID_2050_" d="m373 487.4c-34.6 12.9-71.2 19.6-108.1 19.6h-16.3c-36.9 0-73.6-6.6-108.1-19.6-81.2-30.3-134.8-107.7-134.8-194.2 0-50.4 18.3-99 51.6-136.9 45.3-51.7 110.8-81.3 179.5-81.3h39.6c68.8 0 134.2 29.6 179.6 81.3 33.3 37.9 51.6 86.5 51.6 136.9.1 86.5-53.6 163.9-134.6 194.2z" fill="#ffc970" data-original="#ffc970" class=""></path><path id="XMLID_2049_" d="m373 445.4c-34.6 12.9-71.2 19.6-108.1 19.6h-16.3c-36.9 0-73.6-6.6-108.1-19.6-74.5-27.8-125.9-95.4-133.8-173.2-.7 6.9-1.1 13.9-1.1 20.9 0 86.5 53.7 163.9 134.7 194.3 34.6 12.9 71.2 19.6 108.1 19.6h16.3c36.9 0 73.6-6.6 108.1-19.6 81-30.3 134.7-107.7 134.7-194.3 0-7-.4-14-1.1-20.9-7.7 77.8-59.1 145.4-133.4 173.2z" fill="#ffb233" data-original="#ffb233" class=""></path><path id="XMLID_2048_" d="m256.7 240c-12.4 0-23.9 6.5-30.2 17.2l-8.4 14.1c-6.5 11-18.4 17.7-31.1 17.7-20 0-36.2 16.2-36.2 36.2v165.8c31.5 10.5 64.6 15.9 97.8 15.9h16.3c33.3 0 66.3-5.4 97.8-15.9v-165.8c0-20-16.2-36.2-36.2-36.2-12.8 0-24.6-6.7-31.1-17.7l-8.4-14.1c-6.5-10.7-17.9-17.2-30.3-17.2z" fill="#ebeae0" data-original="#ebeae0"></path><path id="XMLID_2047_" d="m231.7 75.1c0 38.6 11.2 69.9 25 69.9s25-31.3 25-69.9c-1.7 0-3.5-.1-5.2-.1h-39.6c-1.8 0-3.5 0-5.2.1z" fill="#e36414" data-original="#e36414"></path><path id="XMLID_2046_" d="m208.2 128.7c7.7-2.8 6.8-25.3-1.7-51.8-10.9 1.4-21.6 3.5-32.1 6.4 10.8 28.2 25.6 48.4 33.8 45.4z" fill="#e36414" data-original="#e36414"></path><path id="XMLID_2045_" d="m306.8 77c-8.5 26.5-9.4 49-1.7 51.8 8.2 3 23.1-17.2 33.8-45.4-10.5-2.9-21.2-5.1-32.1-6.4z" fill="#e36414" data-original="#e36414"></path><g id="XMLID_2043_"><path id="XMLID_2044_" d="m252 260h10v60h-10z" fill="#b24e10" data-original="#b24e10"></path></g><g id="XMLID_2041_"><path id="XMLID_2042_" d="m103.7 303.4h10v41.2h-10z" fill="#b24e10" transform="matrix(.243 .97 -.97 .243 396.619 139.995)" data-original="#b24e10"></path></g><g id="XMLID_2039_"><path id="XMLID_2040_" d="m88 289h41.2v10h-41.2z" fill="#b24e10" transform="matrix(.97 .243 -.243 .97 74.55 -17.575)" data-original="#b24e10"></path></g><g id="XMLID_2037_"><path id="XMLID_2038_" d="m399.7 273.4h10v41.2h-10z" fill="#b24e10" transform="matrix(.243 .97 -.97 .243 591.711 -169.887)" data-original="#b24e10"></path></g><g id="XMLID_2035_"><path id="XMLID_2036_" d="m384 319h41.2v10h-41.2z" fill="#b24e10" transform="matrix(.97 .243 -.243 .97 90.664 -88.469)" data-original="#b24e10"></path></g><path id="XMLID_2034_" d="m262.5 240h-11.7c-7.8 0-14.1 6.3-14.1 14.1 0 3.8 1.5 7.3 4.1 10l15.9 15.9 15.9-15.9c2.7-2.7 4.1-6.2 4.1-10 0-7.8-6.4-14.1-14.2-14.1z" fill="#e36414" data-original="#e36414"></path><g id="XMLID_2032_"><path id="XMLID_2033_" d="m217.7 260h-10v-20c0-8.3-6.7-15-15-15s-15 6.7-15 15v20h-10v-20c0-13.8 11.2-25 25-25s25 11.2 25 25z" fill="#b24e10" data-original="#b24e10"></path></g><g id="XMLID_2030_"><path id="XMLID_2031_" d="m345.7 260h-10v-20c0-8.3-6.7-15-15-15s-15 6.7-15 15v20h-10v-20c0-13.8 11.2-25 25-25s25 11.2 25 25z" fill="#b24e10" data-original="#b24e10"></path></g><g fill="#e36414"><path id="XMLID_574_" d="m9.8 334.5c2.1 10.6 5.1 20.9 8.8 30.9 25.8-10.5 43.6-24.2 40.8-31.9-2.7-7.6-24-6.9-49.6 1z" fill="#e36414" data-original="#e36414"></path><path id="XMLID_573_" d="m59.4 280.6c3.1-8.4-18.5-24-48.2-34.8-2.5 10.7-4.2 21.6-5 32.7 27.1 8.8 50.3 9.9 53.2 2.1z" fill="#e36414" data-original="#e36414"></path><path id="XMLID_572_" d="m502.1 245.7c-29.7 10.8-51.3 26.4-48.2 34.8 2.9 7.8 26.1 6.7 53.2-2.2-.8-11-2.4-21.9-5-32.6z" fill="#e36414" data-original="#e36414"></path><path id="XMLID_571_" d="m453.9 333.4c-2.8 7.7 15 21.4 40.8 31.9 3.7-10 6.7-20.3 8.8-30.9-25.6-7.8-46.8-8.5-49.6-1z" fill="#e36414" data-original="#e36414"></path></g><path id="XMLID_570_" d="m49.3 152.2 20.2-21.9c21.8-23.7 25.5-58.9 9.1-86.5l-22.9-38.8-1.5 2.4c-27.4 44.2-29 99.4-4.9 144.8z" fill="#ebeae0" data-original="#ebeae0"></path><path id="XMLID_569_" d="m464 152.2-20.2-21.9c-21.8-23.7-25.5-58.9-9.1-86.5l23-38.7 1.5 2.4c27.3 44.1 28.9 99.3 4.8 144.7z" fill="#ebeae0" data-original="#ebeae0"></path><path id="XMLID_568_" d="m264.8 465h-16.3c-33.3 0-66.5-5.4-97.5-15.9v42c31 10.5 64.2 15.9 97.5 15.9h16.3c33.3 0 66.2-5.4 98.2-15.9v-42c-32 10.5-64.9 15.9-98.2 15.9z" fill="#d7d5c1" data-original="#d7d5c1"></path><path id="XMLID_2279_" d="m281.7 75-100-70-25 116.7c-2.6 12 6.6 23.3 18.8 23.3 46.2 0 88-27.5 106.2-70z" fill="#1f3e75" data-original="#1f3e75"></path><path id="XMLID_535_" d="m281.7 75-100-70-10.7 49.6c-6.2 29.1 14.3 57.1 44 60 28.4 2.7 55.4-13.3 66.7-39.6z" fill="#2a539d" data-original="#2a539d"></path><path id="XMLID_616_" d="m221.7 33-46.2.8-2.2 10 62.3-1z" fill="#e25d55" data-original="#e25d55"></path><path id="XMLID_621_" d="m248.6 51.9-86.6 44.8-2.7 12.6 98.6-50.9z" fill="#e25d55" data-original="#e25d55"></path><path id="XMLID_2275_" d="m232.7 320h214v26h-214z" fill="#1f3e75" data-original="#1f3e75"></path><path id="XMLID_2274_" d="m446.7 346h-113c-7.2 0-13-5.8-13-13 0-7.2 5.8-13 13-13h113z" fill="#db3429" data-original="#db3429"></path><path id="XMLID_536_" d="m446.7 346h-82c-7.2 0-13-5.8-13-13 0-7.2 5.8-13 13-13h82z" fill="#b3271e" data-original="#b3271e"></path><path id="XMLID_2272_" d="m487.2 220h-100c-11 0-20 28.2-20 63s9 63 20 63h100c11 0 20-28.2 20-63s-9-63-20-63z" fill="#e25d55" data-original="#e25d55"></path><ellipse id="XMLID_2273_" cx="387.2" cy="283" fill="#db3429" rx="20" ry="63" data-original="#db3429"></ellipse><g id="XMLID_2271_"><path id="XMLID_2868_" d="m383 260h10v46h-10z" fill="#b3271e" data-original="#b3271e"></path></g><path id="XMLID_2270_" d="m60.3 69h-28c0 17.9-7.1 35.1-19.8 47.8l-8.2 8.2h28l8.2-8.2c12.7-12.7 19.8-29.9 19.8-47.8z" fill="#e25d55" data-original="#e25d55"></path><path id="XMLID_2269_" d="m423.2 409h-28c0 17.9-7.1 35.1-19.8 47.8l-8.2 8.2h28l8.2-8.2c12.6-12.7 19.8-29.9 19.8-47.8z" fill="#db3429" data-original="#db3429"></path><path id="XMLID_2268_" d="m4.3 220h28c0 17.9 7.1 35.1 19.8 47.8l8.2 8.2h-28l-8.2-8.2c-12.6-12.7-19.8-29.9-19.8-47.8z" fill="#2a539d" data-original="#2a539d"></path><path id="XMLID_2267_" d="m351.7 125h28c0 17.9 7.1 35.1 19.8 47.8l8.2 8.2h-28l-8.2-8.2c-12.7-12.7-19.8-29.9-19.8-47.8z" fill="#2a539d" data-original="#2a539d"></path><path id="XMLID_575_" d="m208.7 381c26.5 0 48-21.5 48-48s-21.5-48-48-48" fill="#ebeae0" data-original="#ebeae0"></path><path id="XMLID_2029_" d="m209 386v-10c23 0 43-19.3 43-43s-20-43-43-43v-10c29 0 53 23.8 53 53s-24 53-53 53z" fill="#b24e10" data-original="#b24e10"></path></g></g></g></svg>